:SAMPLES-PER-SECOND 30
:FULLY-SPECIFIED
:DEGREES
221
root  -5.3821 38.6195 23.8233 178.839 28.1336 178.175
RightUpLeg  -10.62 -11.232 -9.8368
RightLeg  27.1074 -2.24239 -1.48218
RightFoot  -11.1133 -0.101544 12.9501
RightToes  -1.74624e-010 0 -3.6325e-017
Spine  16.2872 -0.548392 -1.38997
Spine1  17.7047 0.807372 -4.25543
HEad  -23.6827 24.6015 -9.95171
LeftShoulder1  1.2212 -1.85565 -16.0126
LeftArm  13.2278 12.5794 -56.8538
LeftForeArm  110.758 -75.9617 -129.421
LeftHand  -1.28692 -0.722917 24.3296
RightShoulder  1.45343 2.6514 17.0223
RightArm  18.2268 1.94148 58.1612
RightForeArm  115.6 71.2097 143.781
RightHand  -0.00582893 -0.668651 -0.0612062
LeftUpLeg  -10.6513 -4.59525 11.9388
LeftLeg  32.1503 5.60215 4.13223
LeftFoot  -9.33263 0.203035 -8.65837
LeftToes  -5.82109e-011 1.10366e-010 -8.03124e-011
222
root  -5.69592 38.9571 23.7738 179.345 28.6969 178.239
RightUpLeg  -9.9737 -11.4123 -10.1639
RightLeg  23.8858 -1.43089 -0.93395
RightFoot  -8.21896 -0.429688 13.5919
RightToes  -1.74624e-010 0 -3.6325e-017
Spine  14.9343 -0.640501 -2.42205
Spine1  17.251 -0.0165432 -2.66015
HEad  -22.7491 26.2802 -10.0636
LeftShoulder1  1.06285 -1.46708 -14.4814
LeftArm  14.6376 10.6162 -57.1441
LeftForeArm  111.253 -76.3042 -128.125
LeftHand  -1.49612 -1.29126 25.8306
RightShoulder  1.33337 2.4093 15.8633
RightArm  16.7332 1.20193 57.7073
RightForeArm  115.916 70.082 146.002
RightHand  -0.0420784 -0.629063 -0.941335
LeftUpLeg  -8.35741 -2.58088 11.7654
LeftLeg  30.3964 7.06181 4.80125
LeftFoot  -6.94121 0.387056 -8.73786
LeftToes  -5.82109e-011 1.10366e-010 -8.03124e-011
223
root  -6.09968 39.2645 23.6925 -179.787 28.7686 178.325
RightUpLeg  -9.64266 -11.9428 -10.6126
RightLeg  20.585 -0.055184 -0.221148
RightFoot  -5.21324 -0.846927 15.032
RightToes  -1.74624e-010 0 -3.6325e-017
Spine  13.6618 -0.785927 -3.28751
Spine1  16.3973 -0.82918 -1.03427
HEad  -21.8957 27.1705 -9.94862
LeftShoulder1  0.914253 -1.03898 -13.103
LeftArm  15.0759 9.41073 -57.2688
LeftForeArm  112.381 -76.2562 -128.582
LeftHand  -1.69628 -1.75709 27.3512
RightShoulder  1.22649 2.15503 14.9059
RightArm  14.7244 0.313838 56.8247
RightForeArm  116.203 68.8265 148.186
RightHand  -0.0894068 -0.478537 -2.07395
LeftUpLeg  -6.28567 -0.342744 11.6684
LeftLeg  26.9839 7.59804 4.52607
LeftFoot  -3.9841 0.858614 -12.8632
LeftToes  -5.82109e-011 1.10366e-010 -8.03124e-011
224
root  -6.58892 39.4441 23.6173 -178.766 28.5526 178.349
RightUpLeg  -10.4018 -12.4296 -11.0693
RightLeg  19.0777 -1.53443 -0.783241
RightFoot  -2.54322 -1.30798 16.6865
RightToes  -1.74624e-010 0 -3.6325e-017
Spine  13.0331 -0.972858 -3.78786
Spine1  14.829 -1.45793 0.0528916
HEad  -21.345 27.2168 -9.73309
LeftShoulder1  0.792317 -0.61775 -12.1044
LeftArm  15.0881 8.74743 -56.6446
LeftForeArm  114.889 -75.6715 -131.431
LeftHand  -1.73496 -1.88334 27.4708
RightShoulder  1.14399 1.95846 14.1011
RightArm  11.827 -0.782185 55.7985
RightForeArm  118.152 67.7088 150.097
RightHand  -0.107689 -0.243301 -2.42154
LeftUpLeg  -4.92852 1.55395 11.4973
LeftLeg  23.1998 6.87158 3.56056
LeftFoot  -3.08671 1.35336 -18.5207
LeftToes  -5.82109e-011 1.10366e-010 -8.03124e-011
225
root  -7.10255 39.4282 23.5807 -178.038 27.9138 177.915
RightUpLeg  -12.824 -14.151 -11.715
RightLeg  21.4966 -6.06544 -2.89099
RightFoot  -0.639913 -1.61949 17.1435
RightToes  -1.74624e-010 0 -3.6325e-017
Spine  13.0711 -1.15007 -4.58257
Spine1  12.8229 -2.03219 0.805014
HEad  -20.9526 26.6161 -9.62329
LeftShoulder1  0.702905 -0.271518 -11.4356
LeftArm  15.2065 8.21974 -55.2906
LeftForeArm  118.282 -74.8709 -134.881
LeftHand  -1.7191 -1.96665 26.9419
RightShoulder  1.05085 1.68865 13.32
RightArm  8.28479 -1.73286 54.8424
RightForeArm  119.566 66.7333 151.581
RightHand  -0.137776 0.0423365 -2.96464
LeftUpLeg  -4.54784 3.67482 10.89
LeftLeg  20.2883 4.14685 2.03427
LeftFoot  -4.94553 1.22382 -21.1039
LeftToes  -5.82109e-011 1.10366e-010 -8.03124e-011
226
root  -7.54554 39.1729 23.622 -178.027 26.4642 176.795
RightUpLeg  -16.3227 -16.9967 -12.75
RightLeg  27.5998 -9.73855 -5.69307
RightFoot  -0.0848872 -1.66455 16.7715
RightToes  -1.74624e-010 0 -3.6325e-017
Spine  13.3109 -1.32701 -6.57984
Spine1  11.3845 -2.86112 1.86822
HEad  -20.7081 25.6335 -9.66359
LeftShoulder1  0.68546 -0.238411 -11.0992
LeftArm  15.4334 7.69663 -53.4842
LeftForeArm  121.56 -74.2271 -137.463
LeftHand  -1.87246 -2.43232 27.5537
RightShoulder  0.920705 1.18099 12.6783
RightArm  4.80317 -1.99973 54.1724
RightForeArm  118.788 65.9789 152.471
RightHand  -0.224523 0.360601 -4.58865
LeftUpLeg  -4.94805 6.45551 9.68778
LeftLeg  19.044 0.0328674 0.322627
LeftFoot  -8.36055 0.571902 -19.5809
LeftToes  -5.82109e-011 1.10366e-010 -8.03124e-011
227
root  -7.88735 38.7814 23.759 -178.616 24.3595 175.57
RightUpLeg  -19.3007 -18.9218 -13.9416
RightLeg  33.9368 -9.94681 -7.33693
RightFoot  -0.48686 -1.64514 17.1678
RightToes  -1.74624e-010 0 -3.6325e-017
Spine  13.6672 -1.50511 -9.14048
Spine1  11.1187 -3.88177 3.30568
HEad  -20.9532 24.4787 -9.57865
LeftShoulder1  0.740777 -0.553169 -11.0357
LeftArm  15.5554 7.10008 -51.901
LeftForeArm  121.593 -74.451 -136.845
LeftHand  -2.18431 -3.0996 29.5347
RightShoulder  0.786405 0.552224 12.4016
RightArm  1.69463 -1.78236 54.3107
RightForeArm  117.474 66.0368 152.281
RightHand  -0.364712 0.884501 -6.85876
LeftUpLeg  -5.72305 8.48653 8.28516
LeftLeg  19.5212 -2.73943 -0.827858
LeftFoot  -11.7701 0.00655614 -16.5611
LeftToes  -5.82109e-011 1.10366e-010 -8.03124e-011
228
root  -8.11846 38.4506 23.9559 -179.334 22.5534 174.809
RightUpLeg  -21.2028 -18.5655 -14.9638
RightLeg  38.1949 -8.2303 -7.14588
RightFoot  -0.545285 -1.75838 18.4105
RightToes  -1.74624e-010 0 -3.6325e-017
Spine  14.3041 -1.54511 -11.0591
Spine1  11.4844 -4.58073 4.25296
HEad  -21.6928 23.3994 -9.10328
LeftShoulder1  0.818063 -0.967246 -11.0809
LeftArm  15.7048 6.19721 -51.6923
LeftForeArm  111.806 -76.5136 -127.151
LeftHand  -2.4897 -3.47429 32.1078
RightShoulder  0.719587 0.165386 12.654
RightArm  -1.06231 -2.05306 55.5918
RightForeArm  116.992 67.7805 149.877
RightHand  -0.579537 1.90318 -9.3774
LeftUpLeg  -6.57601 8.5657 7.19287
LeftLeg  20.9338 -3.07241 -1.03485
LeftFoot  -14.2972 -0.29996 -14.7365
LeftToes  -5.82109e-011 1.10366e-010 -8.03124e-011
229
root  -8.22167 38.2242 24.1195 -179.757 21.9924 174.592
RightUpLeg  -22.773 -16.7624 -15.6254
RightLeg  40.9166 -6.47874 -6.25704
RightFoot  0.306619 -2.00978 19.548
RightToes  -1.74624e-010 0 -3.6325e-017
Spine  14.8496 -1.39807 -11.8331
Spine1  11.7132 -4.60504 4.17922
HEad  -22.2111 22.7387 -8.47327
LeftShoulder1  0.899825 -1.3252 -11.4518
LeftArm  15.852 5.05668 -53.4649
LeftForeArm  82.0502 -79.0005 -98.1446
LeftHand  -2.78881 -3.54469 35.4281
RightShoulder  0.740642 0.13878 13.4512
RightArm  -3.33493 -3.33867 57.6854
RightForeArm  114.102 71.6867 142.521
RightHand  -0.944349 3.44786 -12.5773
LeftUpLeg  -7.51685 7.82848 6.82514
LeftLeg  22.9386 -2.70354 -0.907744
LeftFoot  -16.1208 -0.525283 -14.7836
LeftToes  -5.82109e-011 1.10366e-010 -8.03124e-011
230
root  -8.19022 38.03 24.1722 -179.842 22.7736 174.711
RightUpLeg  -24.4825 -15.3487 -16.028
RightLeg  42.8445 -4.86402 -5.10488
RightFoot  1.25204 -2.19721 19.8122
RightToes  -1.74624e-010 0 -3.6325e-017
Spine  14.8308 -1.21012 -12.0168
Spine1  11.7355 -4.25117 3.52536
HEad  -21.9089 22.7873 -8.17902
LeftShoulder1  1.01078 -1.60553 -12.722
LeftArm  14.9683 4.44824 -56.5833
LeftForeArm  43.7532 -77.6336 -61.0676
LeftHand  -3.19926 -3.64026 39.8265
RightShoulder  0.770498 0.121475 14.4846
RightArm  -4.84773 -5.1743 60.04
RightForeArm  98.1085 76.9536 121.36
RightHand  -1.45936 5.08899 -16.359
LeftUpLeg  -8.19282 7.56396 7.20482
LeftLeg  25.0071 -2.6037 -0.969317
LeftFoot  -17.7312 -0.785493 -15.8715
LeftToes  -5.82109e-011 1.10366e-010 -8.03124e-011
